<mxfile host="app.diagrams.net" agent="Mozilla/5.0 (Windows NT 10.0; Win64; x64) AppleWebKit/537.36 (KHTML, like Gecko) Chrome/134.0.0.0 Safari/537.36" version="26.2.12">
  <diagram name="Page-1" id="e7e014a7-5840-1c2e-5031-d8a46d1fe8dd">
    <mxGraphModel dx="1027" dy="464" grid="1" gridSize="10" guides="1" tooltips="1" connect="1" arrows="1" fold="1" page="1" pageScale="1" pageWidth="1169" pageHeight="826" background="none" math="0" shadow="0">
      <root>
        <mxCell id="0" />
        <mxCell id="1" parent="0" />
        <mxCell id="3" value="k" style="swimlane;whiteSpace=wrap" parent="1" vertex="1">
          <mxGeometry x="540" y="100" width="390" height="570" as="geometry" />
        </mxCell>
        <mxCell id="eI5pKqz1qLyFh7BOkfm3-68" style="edgeStyle=orthogonalEdgeStyle;rounded=0;orthogonalLoop=1;jettySize=auto;html=1;entryX=0.5;entryY=0;entryDx=0;entryDy=0;fontFamily=Helvetica;fontSize=12;fontColor=default;fontStyle=1;" edge="1" parent="3" source="15" target="eI5pKqz1qLyFh7BOkfm3-50">
          <mxGeometry relative="1" as="geometry" />
        </mxCell>
        <mxCell id="15" value="Sản phẩm đã hết hàng, không thể mua&#xa;sản phẩm" style="" parent="3" vertex="1">
          <mxGeometry x="67.75" y="97" width="214.5" height="48" as="geometry" />
        </mxCell>
        <mxCell id="eI5pKqz1qLyFh7BOkfm3-60" style="edgeStyle=orthogonalEdgeStyle;rounded=0;orthogonalLoop=1;jettySize=auto;html=1;entryX=1;entryY=0.5;entryDx=0;entryDy=0;fontFamily=Helvetica;fontSize=12;fontColor=default;fontStyle=1;" edge="1" parent="3" source="16" target="8">
          <mxGeometry relative="1" as="geometry" />
        </mxCell>
        <mxCell id="16" value="Thêm sản phẩm vào giỏi hàng hoặc&#xa;cập nhật số lượng nếu sản phẩm đã có&#xa;trong giỏi hàng" style="" parent="3" vertex="1">
          <mxGeometry x="40" y="220" width="270" height="50" as="geometry" />
        </mxCell>
        <mxCell id="eI5pKqz1qLyFh7BOkfm3-64" style="edgeStyle=orthogonalEdgeStyle;rounded=0;orthogonalLoop=1;jettySize=auto;html=1;entryX=0.5;entryY=0;entryDx=0;entryDy=0;fontFamily=Helvetica;fontSize=12;fontColor=default;fontStyle=1;" edge="1" parent="3" source="18" target="10">
          <mxGeometry relative="1" as="geometry" />
        </mxCell>
        <mxCell id="18" value="Hiển thị giao diện giỏ hàng với cac thông tin:&#xa;các loại sách, số lượng, tổng tiền,.." style="" parent="3" vertex="1">
          <mxGeometry x="40" y="322.5" width="270" height="55" as="geometry" />
        </mxCell>
        <mxCell id="eI5pKqz1qLyFh7BOkfm3-66" style="edgeStyle=orthogonalEdgeStyle;rounded=0;orthogonalLoop=1;jettySize=auto;html=1;entryX=0.5;entryY=0;entryDx=0;entryDy=0;fontFamily=Helvetica;fontSize=12;fontColor=default;fontStyle=1;" edge="1" parent="3" source="30" target="eI5pKqz1qLyFh7BOkfm3-51">
          <mxGeometry relative="1" as="geometry" />
        </mxCell>
        <mxCell id="30" value="Lưu và hiển thị thay đổi về số lượng sản phẩm &#xa;và tổng tiền thanh toán " style="" parent="3" vertex="1">
          <mxGeometry x="40" y="412" width="270" height="68" as="geometry" />
        </mxCell>
        <mxCell id="2" value="Khách hàng" style="swimlane;whiteSpace=wrap" parent="3" vertex="1">
          <mxGeometry x="-300.5" width="300.5" height="570" as="geometry" />
        </mxCell>
        <mxCell id="eI5pKqz1qLyFh7BOkfm3-56" style="edgeStyle=orthogonalEdgeStyle;rounded=0;orthogonalLoop=1;jettySize=auto;html=1;entryX=0;entryY=0.5;entryDx=0;entryDy=0;fontFamily=Helvetica;fontSize=12;fontColor=default;fontStyle=1;" edge="1" parent="2" source="7" target="eI5pKqz1qLyFh7BOkfm3-54">
          <mxGeometry relative="1" as="geometry" />
        </mxCell>
        <mxCell id="7" value="Chọn sản phẩm và &#xa;ấn thêm vào giỏi hàng" style="" parent="2" vertex="1">
          <mxGeometry x="50" y="96" width="130" height="50" as="geometry" />
        </mxCell>
        <mxCell id="8" value="Khách hàng ấn vào giỏi hàng" style="" parent="2" vertex="1">
          <mxGeometry x="40.5" y="220" width="150" height="50" as="geometry" />
        </mxCell>
        <mxCell id="10" value="khách hàng cập nhật &#xa;các sản phẩm trong giỏi hàng" style="" parent="2" vertex="1">
          <mxGeometry x="60.5" y="377.5" width="160" height="55" as="geometry" />
        </mxCell>
        <mxCell id="eI5pKqz1qLyFh7BOkfm3-55" style="edgeStyle=orthogonalEdgeStyle;rounded=0;orthogonalLoop=1;jettySize=auto;html=1;entryX=0.5;entryY=0;entryDx=0;entryDy=0;fontFamily=Helvetica;fontSize=12;fontColor=default;fontStyle=1;" edge="1" parent="2" source="eI5pKqz1qLyFh7BOkfm3-52" target="7">
          <mxGeometry relative="1" as="geometry" />
        </mxCell>
        <mxCell id="eI5pKqz1qLyFh7BOkfm3-52" value="" style="ellipse;fillColor=strokeColor;html=1;strokeColor=#000000;align=center;verticalAlign=middle;fontFamily=Helvetica;fontSize=12;fontColor=default;" vertex="1" parent="2">
          <mxGeometry x="100.5" y="42" width="30" height="30" as="geometry" />
        </mxCell>
        <mxCell id="eI5pKqz1qLyFh7BOkfm3-54" value="" style="rhombus;whiteSpace=wrap;html=1;strokeColor=#000000;align=center;verticalAlign=middle;fontFamily=Helvetica;fontSize=12;fontColor=default;fillColor=default;" vertex="1" parent="2">
          <mxGeometry x="220.5" y="99" width="59.5" height="44" as="geometry" />
        </mxCell>
        <mxCell id="eI5pKqz1qLyFh7BOkfm3-50" value="" style="ellipse;html=1;shape=endState;fillColor=strokeColor;strokeColor=#000000;align=center;verticalAlign=middle;fontFamily=Helvetica;fontSize=12;fontColor=default;" vertex="1" parent="3">
          <mxGeometry x="330" y="150" width="30" height="30" as="geometry" />
        </mxCell>
        <mxCell id="eI5pKqz1qLyFh7BOkfm3-51" value="" style="ellipse;html=1;shape=endState;fillColor=strokeColor;strokeColor=#000000;align=center;verticalAlign=middle;fontFamily=Helvetica;fontSize=12;fontColor=default;" vertex="1" parent="3">
          <mxGeometry x="160" y="522" width="30" height="30" as="geometry" />
        </mxCell>
        <mxCell id="eI5pKqz1qLyFh7BOkfm3-57" value="&lt;span style=&quot;font-weight: 400;&quot;&gt;No&lt;/span&gt;" style="edgeStyle=orthogonalEdgeStyle;rounded=0;orthogonalLoop=1;jettySize=auto;html=1;entryX=0;entryY=0.5;entryDx=0;entryDy=0;fontFamily=Helvetica;fontSize=12;fontColor=default;fontStyle=1;" edge="1" parent="3" source="eI5pKqz1qLyFh7BOkfm3-54" target="15">
          <mxGeometry relative="1" as="geometry" />
        </mxCell>
        <mxCell id="eI5pKqz1qLyFh7BOkfm3-59" value="&lt;span style=&quot;font-weight: 400;&quot;&gt;Yes&lt;/span&gt;" style="edgeStyle=orthogonalEdgeStyle;rounded=0;orthogonalLoop=1;jettySize=auto;html=1;entryX=0.5;entryY=0;entryDx=0;entryDy=0;fontFamily=Helvetica;fontSize=12;fontColor=default;fontStyle=1;" edge="1" parent="3" source="eI5pKqz1qLyFh7BOkfm3-54" target="16">
          <mxGeometry relative="1" as="geometry">
            <Array as="points">
              <mxPoint x="-50" y="182" />
              <mxPoint x="175" y="182" />
            </Array>
          </mxGeometry>
        </mxCell>
        <mxCell id="eI5pKqz1qLyFh7BOkfm3-61" style="edgeStyle=orthogonalEdgeStyle;rounded=0;orthogonalLoop=1;jettySize=auto;html=1;entryX=0.5;entryY=0;entryDx=0;entryDy=0;fontFamily=Helvetica;fontSize=12;fontColor=default;fontStyle=1;" edge="1" parent="3" source="8" target="18">
          <mxGeometry relative="1" as="geometry">
            <Array as="points">
              <mxPoint x="-185" y="292" />
              <mxPoint x="175" y="292" />
            </Array>
          </mxGeometry>
        </mxCell>
        <mxCell id="eI5pKqz1qLyFh7BOkfm3-65" style="edgeStyle=orthogonalEdgeStyle;rounded=0;orthogonalLoop=1;jettySize=auto;html=1;entryX=0;entryY=0.5;entryDx=0;entryDy=0;fontFamily=Helvetica;fontSize=12;fontColor=default;fontStyle=1;" edge="1" parent="3" source="10" target="30">
          <mxGeometry relative="1" as="geometry" />
        </mxCell>
      </root>
    </mxGraphModel>
  </diagram>
</mxfile>
